<?xml version="1.0"?>
<svg xmlns="http://www.w3.org/2000/svg" xmlns:xlink="http://www.w3.org/1999/xlink" xmlns:svgjs="http://svgjs.com/svgjs" version="1.1" width="512" height="512" x="0" y="0" viewBox="0 0 368.8 368.8" style="enable-background:new 0 0 512 512" xml:space="preserve" class=""><g>
<circle xmlns="http://www.w3.org/2000/svg" style="" cx="184.4" cy="184.4" r="178" fill="#469612" data-original="#469612" class=""/>
<g xmlns="http://www.w3.org/2000/svg">
	<circle style="" cx="184.4" cy="184.4" r="125.2" fill="#7ece29" data-original="#7ece29" class=""/>
	<path style="" d="M239.2,129.6c14,14,22.8,33.2,22.8,54.8c0,42.8-34.4,77.2-77.2,77.2s-77.2-34.4-77.2-77.2   c0-20.8,8-39.6,21.6-53.2" fill="#7ece29" data-original="#7ece29" class=""/>
</g>
<g xmlns="http://www.w3.org/2000/svg">
	<path style="" d="M184.4,0C82.8,0,0,82.8,0,184.4s82.8,184.4,184.4,184.4S368.8,286,368.8,184.4S286,0,184.4,0z    M184.4,356C90,356,12.8,279.2,12.8,184.4S90,12.8,184.4,12.8S356,89.6,356,184.4S278.8,356,184.4,356z" fill="#001b01" data-original="#001b01" class=""/>
	<path style="" d="M184.4,52.8C112,52.8,52.8,112,52.8,184.4S112,316,184.4,316S316,256.8,316,184.4   S256.8,52.8,184.4,52.8z M184.4,302.8C119.2,302.8,66,249.6,66,184.4S119.2,66,184.4,66s118.4,53.2,118.4,118.4   S249.6,302.8,184.4,302.8z" fill="#001b01" data-original="#001b01" class=""/>
	<path style="" d="M234.4,125.2c-2.4,2.4-2.4,6.8,0,9.2c13.2,13.2,20.8,31.2,20.8,50c0,39.2-31.6,70.8-70.8,70.8   s-70.8-31.6-70.8-70.8c0-18.4,6.8-35.6,19.6-48.8c2.4-2.4,2.4-6.8-0.4-9.2c-2.4-2.4-6.8-2.4-9.2,0.4c-14.8,15.6-23.2,36.4-23.2,58   c0,46,37.6,83.6,83.6,83.6s83.6-37.6,83.6-83.6c0-22.4-8.8-43.2-24.4-59.2C241.2,122.8,236.8,122.8,234.4,125.2z" fill="#001b01" data-original="#001b01" class=""/>
	<path style="" d="M184.4,190.8c3.6,0,6.4-2.8,6.4-6.4V87.2c0-3.6-2.8-6.4-6.4-6.4s-6.4,2.8-6.4,6.4v97.2   C178,188,180.8,190.8,184.4,190.8z" fill="#001b01" data-original="#001b01" class=""/>
</g>
<g xmlns="http://www.w3.org/2000/svg">
</g>
<g xmlns="http://www.w3.org/2000/svg">
</g>
<g xmlns="http://www.w3.org/2000/svg">
</g>
<g xmlns="http://www.w3.org/2000/svg">
</g>
<g xmlns="http://www.w3.org/2000/svg">
</g>
<g xmlns="http://www.w3.org/2000/svg">
</g>
<g xmlns="http://www.w3.org/2000/svg">
</g>
<g xmlns="http://www.w3.org/2000/svg">
</g>
<g xmlns="http://www.w3.org/2000/svg">
</g>
<g xmlns="http://www.w3.org/2000/svg">
</g>
<g xmlns="http://www.w3.org/2000/svg">
</g>
<g xmlns="http://www.w3.org/2000/svg">
</g>
<g xmlns="http://www.w3.org/2000/svg">
</g>
<g xmlns="http://www.w3.org/2000/svg">
</g>
<g xmlns="http://www.w3.org/2000/svg">
</g>
</g></svg>
