<?xml version="1.0"?>
<svg xmlns="http://www.w3.org/2000/svg" xmlns:xlink="http://www.w3.org/1999/xlink" xmlns:svgjs="http://svgjs.com/svgjs" version="1.1" width="512" height="512" x="0" y="0" viewBox="0 0 512.001 512" style="enable-background:new 0 0 512 512" xml:space="preserve"><g><path xmlns="http://www.w3.org/2000/svg" d="m463 207c0 114.324219-92.675781 207-207 207s-207-92.675781-207-207 92.675781-207 207-207 207 92.675781 207 207zm0 0" fill="#f0c48a" data-original="#f0c48a" style=""/><path xmlns="http://www.w3.org/2000/svg" d="m5.863281 72.125h500.273438v235.363281h-500.273438zm0 0" fill="#d3e6f8" data-original="#d3e6f8" style=""/><path xmlns="http://www.w3.org/2000/svg" d="m34.921875 99.410156h269.183594v180.789063h-269.183594zm0 0" fill="#ffffff" data-original="#ffffff" style=""/><path xmlns="http://www.w3.org/2000/svg" d="m278.359375 99.410156h25.746094v129.992188h-25.746094zm0 0" fill="#d3e6f8" data-original="#d3e6f8" style=""/><path xmlns="http://www.w3.org/2000/svg" d="m34.921875 231.371094 17.945313-24.828125c12.789062-17.6875 38.445312-17.6875 51.230468 0l8.128906 11.246093c12.785157 17.6875 38.445313 17.6875 51.230469 0l40.511719-56.042968c12.785156-17.6875 38.441406-17.6875 51.230469 0l48.90625 67.65625v50.796875h-269.183594zm0 0" fill="#fd919e" data-original="#fd919e" style=""/><path xmlns="http://www.w3.org/2000/svg" d="m304.105469 279.335938h-25.746094v-85.550782l25.746094 30.417969zm0 0" fill="#e8677d" data-original="#e8677d" style=""/><path xmlns="http://www.w3.org/2000/svg" d="m474.023438 76.226562h28.589843v228.046876h-28.589843zm0 0" fill="#a4cff2" data-original="#a4cff2" style=""/><path xmlns="http://www.w3.org/2000/svg" d="m66.621094 307.488281h96.554687v34.386719h-96.554687zm0 0" fill="#7babf1" data-original="#7babf1" style=""/><path xmlns="http://www.w3.org/2000/svg" d="m348.824219 307.488281h96.554687v34.386719h-96.554687zm0 0" fill="#7babf1" data-original="#7babf1" style=""/><path xmlns="http://www.w3.org/2000/svg" d="m362.613281 175.308594c-15.09375 0-27.328125-12.234375-27.328125-27.332032 0-15.09375 12.234375-27.328124 27.328125-27.328124 15.097657 0 27.332031 12.234374 27.332031 27.328124 0 15.097657-12.234374 27.332032-27.332031 27.332032zm0 0" fill="#fd919e" data-original="#fd919e" style=""/><path xmlns="http://www.w3.org/2000/svg" d="m362.613281 258.960938c-15.09375 0-27.328125-12.234376-27.328125-27.328126s12.234375-27.332031 27.328125-27.332031c15.097657 0 27.332031 12.238281 27.332031 27.332031s-12.234374 27.328126-27.332031 27.328126zm0 0" fill="#fd919e" data-original="#fd919e" style=""/><path xmlns="http://www.w3.org/2000/svg" d="m449.070312 175.308594c-15.09375 0-27.328124-12.234375-27.328124-27.332032 0-15.09375 12.234374-27.328124 27.328124-27.328124s27.332032 12.234374 27.332032 27.328124c0 15.097657-12.238282 27.332032-27.332032 27.332032zm0 0" fill="#fd919e" data-original="#fd919e" style=""/><path xmlns="http://www.w3.org/2000/svg" d="m449.070312 258.960938c-15.09375 0-27.328124-12.234376-27.328124-27.328126s12.234374-27.332031 27.328124-27.332031 27.332032 12.238281 27.332032 27.332031-12.238282 27.328126-27.332032 27.328126zm0 0" fill="#fd919e" data-original="#fd919e" style=""/><g xmlns="http://www.w3.org/2000/svg" fill="#4c4372"><path d="m506.136719 313.347656h-500.273438c-3.238281 0-5.863281-2.625-5.863281-5.859375v-235.363281c0-3.238281 2.625-5.863281 5.863281-5.863281h500.273438c3.238281 0 5.863281 2.625 5.863281 5.863281v235.363281c0 3.234375-2.625 5.859375-5.863281 5.859375zm-494.410157-11.722656h488.546876v-223.636719h-488.546876zm0 0" fill="#4c4372" data-original="#4c4372" style=""/><path d="m304.105469 286.0625h-269.183594c-3.238281 0-5.863281-2.625-5.863281-5.863281v-180.789063c0-3.238281 2.625-5.863281 5.863281-5.863281h269.183594c3.238281 0 5.863281 2.625 5.863281 5.863281v180.789063c0 3.238281-2.625 5.863281-5.863281 5.863281zm-263.320313-11.722656h257.457032v-169.066406h-257.457032zm0 0" fill="#4c4372" data-original="#4c4372" style=""/><path d="m362.617188 181.171875c-18.304688 0-33.195313-14.890625-33.195313-33.195313 0-18.300781 14.890625-33.191406 33.195313-33.191406 18.300781 0 33.191406 14.890625 33.191406 33.191406 0 18.304688-14.890625 33.195313-33.191406 33.195313zm0-54.660156c-11.839844 0-21.46875 9.628906-21.46875 21.46875 0 11.835937 9.628906 21.464843 21.46875 21.464843 11.835937 0 21.464843-9.628906 21.464843-21.464843 0-11.839844-9.628906-21.46875-21.464843-21.46875zm0 0" fill="#4c4372" data-original="#4c4372" style=""/><path d="m362.617188 264.824219c-18.304688 0-33.195313-14.890625-33.195313-33.191407 0-18.304687 14.890625-33.191406 33.195313-33.191406 18.300781 0 33.191406 14.886719 33.191406 33.191406 0 18.300782-14.890625 33.191407-33.191406 33.191407zm0-54.660157c-11.839844 0-21.46875 9.632813-21.46875 21.46875 0 11.835938 9.628906 21.464844 21.46875 21.464844 11.835937 0 21.464843-9.628906 21.464843-21.464844 0-11.835937-9.628906-21.46875-21.464843-21.46875zm0 0" fill="#4c4372" data-original="#4c4372" style=""/><path d="m362.617188 153.839844c-3.238282 0-5.863282-2.625-5.863282-5.863282v-27.328124c0-3.238282 2.625-5.863282 5.863282-5.863282 3.238281 0 5.863281 2.625 5.863281 5.863282v27.328124c-.003907 3.238282-2.628907 5.863282-5.863281 5.863282zm0 0" fill="#4c4372" data-original="#4c4372" style=""/><path d="m389.945312 237.496094h-27.328124c-3.238282 0-5.863282-2.625-5.863282-5.863282 0-3.238281 2.625-5.863281 5.863282-5.863281h27.328124c3.238282 0 5.863282 2.625 5.863282 5.863281 0 3.238282-2.625 5.863282-5.863282 5.863282zm0 0" fill="#4c4372" data-original="#4c4372" style=""/><path d="m449.070312 181.171875c-18.300781 0-33.191406-14.890625-33.191406-33.195313 0-18.300781 14.890625-33.191406 33.191406-33.191406 18.304688 0 33.195313 14.890625 33.195313 33.191406 0 18.304688-14.890625 33.195313-33.195313 33.195313zm0-54.660156c-11.835937 0-21.464843 9.628906-21.464843 21.46875 0 11.835937 9.628906 21.464843 21.464843 21.464843 11.839844 0 21.46875-9.628906 21.46875-21.464843 0-11.839844-9.632812-21.46875-21.46875-21.46875zm0 0" fill="#4c4372" data-original="#4c4372" style=""/><path d="m449.070312 264.824219c-18.300781 0-33.191406-14.890625-33.191406-33.191407 0-18.304687 14.890625-33.191406 33.191406-33.191406 18.304688 0 33.195313 14.886719 33.195313 33.191406 0 18.300782-14.890625 33.191407-33.195313 33.191407zm0-54.660157c-11.835937 0-21.464843 9.632813-21.464843 21.46875 0 11.835938 9.628906 21.464844 21.464843 21.464844 11.839844 0 21.46875-9.628906 21.46875-21.464844 0-11.835937-9.632812-21.46875-21.46875-21.46875zm0 0" fill="#4c4372" data-original="#4c4372" style=""/><path d="m449.070312 181.085938c-3.234374 0-5.859374-2.625-5.859374-5.863282v-27.332031c0-3.234375 2.625-5.859375 5.859374-5.859375 3.238282 0 5.863282 2.625 5.863282 5.859375v27.332031c0 3.238282-2.625 5.863282-5.863282 5.863282zm0 0" fill="#4c4372" data-original="#4c4372" style=""/><path d="m450.066406 237.496094h-27.328125c-3.238281 0-5.863281-2.625-5.863281-5.863282 0-3.238281 2.625-5.863281 5.863281-5.863281h27.328125c3.238282 0 5.863282 2.625 5.863282 5.863281 0 3.238282-2.625 5.863282-5.863282 5.863282zm0 0" fill="#4c4372" data-original="#4c4372" style=""/><path d="m34.917969 237.234375c-1.191407 0-2.390625-.359375-3.429688-1.113281-2.625-1.894532-3.214843-5.558594-1.316406-8.183594l17.945313-24.824219c7.210937-9.976562 18.277343-15.695312 30.367187-15.695312 12.085937 0 23.15625 5.71875 30.363281 15.695312l8.128906 11.242188c4.980469 6.886719 12.585938 10.839843 20.867188 10.839843 8.277344 0 15.882812-3.949218 20.863281-10.839843l40.511719-56.042969c7.210938-9.972656 18.277344-15.695312 30.363281-15.695312 12.089844 0 23.15625 5.71875 30.367188 15.695312l48.90625 67.65625c1.898437 2.625 1.304687 6.289062-1.316407 8.1875-2.625 1.894531-6.289062 1.304688-8.1875-1.320312l-48.90625-67.65625c-4.976562-6.886719-12.582031-10.835938-20.863281-10.835938s-15.886719 3.949219-20.863281 10.835938l-40.515625 56.046874c-7.207031 9.972657-18.277344 15.695313-30.363281 15.695313-12.085938 0-23.15625-5.722656-30.367188-15.695313l-8.128906-11.246093c-4.976562-6.886719-12.582031-10.839844-20.863281-10.839844s-15.882813 3.953125-20.863281 10.839844l-17.945313 24.824219c-1.144531 1.585937-2.9375 2.429687-4.753906 2.429687zm0 0" fill="#4c4372" data-original="#4c4372" style=""/><path d="m163.175781 347.742188h-96.554687c-3.234375 0-5.859375-2.625-5.859375-5.863282v-34.390625c0-3.238281 2.625-5.863281 5.859375-5.863281h96.554687c3.238281 0 5.863281 2.625 5.863281 5.863281v34.390625c0 3.238282-2.625 5.863282-5.863281 5.863282zm-90.691406-11.726563h84.828125v-22.667969h-84.828125zm0 0" fill="#4c4372" data-original="#4c4372" style=""/><path d="m445.378906 347.742188h-96.554687c-3.238281 0-5.863281-2.625-5.863281-5.863282v-34.390625c0-3.238281 2.625-5.863281 5.863281-5.863281h96.554687c3.234375 0 5.859375 2.625 5.859375 5.863281v34.390625c0 3.238282-2.625 5.863282-5.859375 5.863282zm-90.691406-11.726563h84.828125v-22.667969h-84.828125zm0 0" fill="#4c4372" data-original="#4c4372" style=""/></g></g></svg>
