<?xml version="1.0"?>
<svg xmlns="http://www.w3.org/2000/svg" xmlns:xlink="http://www.w3.org/1999/xlink" xmlns:svgjs="http://svgjs.com/svgjs" version="1.1" width="512" height="512" x="0" y="0" viewBox="0 0 512.004 512.004" style="enable-background:new 0 0 512 512" xml:space="preserve"><g><g xmlns="http://www.w3.org/2000/svg"><g><g><g><path d="m504.975 59.549-38.923 6.763c-5.43.35-10.86-.04-16.15-1.15-.19-.03-.37-.07-.56-.11-3.41-.74-6.77-1.78-10.02-3.12l-126.84-52.17c-8.06-3.32-17.15-2.97-24.93.96l-150.18 75.77c-6.05 3.06-9.87 9.26-9.87 16.04 0 10.16 8.31 17.97 17.93 17.97 1.45 0 2.93-.18 4.41-.55l117.34-28.43.44-.11 244.38 77.95v-103.902c0-3.724-3.358-6.549-7.027-5.911z" fill="#fed2a4" data-original="#fed2a4" style=""/><path d="m504.975 59.549-38.923 6.763c-5.43.35-10.86-.04-16.15-1.15-.19-.03-.37-.07-.56-.11-3.41-.74-6.77-1.78-10.02-3.12l-126.84-52.17c-8.06-3.32-17.15-2.97-24.93.96l-150.18 75.771c-6.05 3.06-9.87 9.26-9.87 16.04 0 6.378 3.276 11.827 8.093 15.001.57-.375 1.158-.729 1.777-1.041l150.18-75.771c7.78-3.93 16.87-4.28 24.93-.96l126.84 52.17c3.25 1.34 6.61 2.38 10.02 3.12.19.04.37.08.56.11 5.29 1.11 10.72 1.5 16.15 1.15l38.923-6.763c3.669-.638 7.027 2.187 7.027 5.911v-30c0-3.724-3.357-6.549-7.027-5.911z" fill="#ffbd86" data-original="#ffbd86" style=""/><path d="m371.612 95.732c0-8.902-5.838-16.75-14.365-19.305-5.923-1.775-11.847-3.55-17.775-5.325l-11.36-3.4-35.09-10.51c-4.125-1.845-8.573-2.205-12.644-1.279 0 0-5.902 1.401-10.386 6.439-6.147 6.906-6.996 18.233-2.81 29.17 73.521 52.755 115.28 74.074 125.287 63.964 6.518-6.585-.435-26.504-20.857-59.754z" fill="#ffbd86" data-original="#ffbd86" style=""/><path d="m371.612 95.732c-10.71-3.21-21.42-6.42-32.14-9.63l-11.36-3.4-35.09-10.51c-8.25-3.69-17.79-1.44-23.03 5.16-.22.27-.43.55-.62.84-2.84 4.04-3.44 8.92-2.19 13.33 1.09 3.91 3.64 7.45 7.38 9.72l107.57 73.19c21.27 14.47 47.42 19.87 72.67 15.02l52.355-10.273c2.815-.552 4.845-3.019 4.845-5.888v-6.571z" fill="#fed2a4" data-original="#fed2a4" style=""/></g></g><g><g><path d="m7.029 452.455 38.923-6.763c5.43-.35 10.86.04 16.15 1.15.19.03.37.07.56.11 3.41.74 6.77 1.78 10.02 3.12l126.84 52.17c8.06 3.32 17.15 2.97 24.93-.96l150.18-75.77c6.05-3.06 9.87-9.26 9.87-16.04 0-10.16-8.31-17.97-17.93-17.97-1.45 0-2.93.18-4.41.55l-117.34 28.43-.44.11-244.38-77.95v103.902c0 3.724 3.358 6.549 7.027 5.911z" fill="#fed2a4" data-original="#fed2a4" style=""/><path d="m376.409 394.471c-.57.375-1.158.729-1.777 1.041l-150.18 75.77c-7.78 3.93-16.87 4.28-24.93.96l-126.84-52.17c-3.25-1.34-6.61-2.38-10.02-3.12-.19-.04-.37-.08-.56-.11-5.29-1.11-10.72-1.5-16.15-1.15l-38.923 6.763c-3.669.638-7.027-2.187-7.027-5.911v30c0 3.724 3.358 6.549 7.027 5.911l38.923-6.763c5.43-.35 10.86.04 16.15 1.15.19.03.37.07.56.11 3.41.74 6.77 1.78 10.02 3.12l126.84 52.17c8.06 3.32 17.15 2.97 24.93-.96l150.18-75.77c6.05-3.06 9.87-9.26 9.87-16.04 0-6.377-3.276-11.826-8.093-15.001z" fill="#ffbd86" data-original="#ffbd86" style=""/><path d="m140.392 416.272c0 8.902 5.838 16.75 14.365 19.305 5.923 1.775 11.847 3.55 17.775 5.325l11.36 3.4 35.09 10.51c4.125 1.845 8.572 2.205 12.644 1.279 0 0 5.902-1.401 10.386-6.439 6.147-6.906 6.996-18.233 2.81-29.17-73.521-52.755-115.28-74.074-125.287-63.964-6.518 6.585.436 26.504 20.857 59.754z" fill="#ffbd86" data-original="#ffbd86" style=""/><path d="m140.392 416.272c10.71 3.21 21.42 6.42 32.14 9.63l11.36 3.4 35.09 10.51c8.25 3.69 17.79 1.44 23.03-5.16.22-.27.43-.55.62-.84 2.84-4.04 3.44-8.92 2.19-13.33-1.09-3.91-3.64-7.45-7.38-9.72l-107.57-73.19c-21.27-14.47-47.42-19.87-72.67-15.02l-52.355 10.273c-2.815.552-4.845 3.019-4.845 5.888v6.571z" fill="#fed2a4" data-original="#fed2a4" style=""/></g></g><g><ellipse cx="256.002" cy="256.002" fill="#fedf30" rx="105.891" ry="105.891" transform="matrix(.707 -.707 .707 .707 -106.04 256.002)" data-original="#fedf30" style=""/><path d="m287.704 154.941c26.758 19.218 44.19 50.603 44.19 86.062 0 58.482-47.409 105.892-105.892 105.892-11.044 0-21.692-1.693-31.701-4.83 17.374 12.478 38.678 19.83 61.701 19.83 58.482 0 105.892-47.409 105.892-105.892 0-47.439-31.195-87.589-74.19-101.062z" fill="#fac600" data-original="#fac600" style=""/><path d="m275.458 184.062c5.99-.048 9.984 5.447 7.977 10.627-5.332 13.766-11.234 27.359-16.989 40.955-.348.823-.099 1.166.583 1.56 10.776 6.221 21.528 12.484 32.314 18.686 5.314 3.056 6.16 9.274 1.726 13.48-19.537 18.533-39.104 37.033-58.664 55.541-3.281 3.104-6.511 3.809-9.875 2.18-3.664-1.774-5.462-5.943-3.966-9.807 2.041-5.274 4.277-10.473 6.448-15.695 3.504-8.425 7.008-16.85 10.558-25.255.362-.858.059-1.163-.602-1.543-10.91-6.274-21.928-12.422-32.702-18.926-5.015-3.028-5.608-9.202-1.333-13.253 19.549-18.522 39.154-36.985 58.664-55.548 1.801-1.711 3.776-2.934 5.861-3.002z" fill="#fea95c" data-original="#fea95c" style=""/><path d="m299.344 255.891c-10.786-6.203-21.538-12.465-32.314-18.686-.682-.394-.931-.737-.583-1.56 5.755-13.596 11.657-27.189 16.989-40.955 2.006-5.181-1.988-10.676-7.977-10.627-2.085.068-4.059 1.291-5.859 3.002-7.031 6.689-14.082 13.358-21.131 20.029-1.09 3.476-7.911 17.619-10.518 25.326-.875 2.588.195 5.428 2.56 6.795 9.612 5.558 19.209 11.14 28.834 16.675 5.314 3.056 6.16 9.274 1.726 13.48-12.45 11.811-24.92 23.601-37.385 35.395-1.743 4.159-3.493 8.315-5.12 12.519-1.495 3.865.303 8.034 3.966 9.808 3.364 1.628 6.594.924 9.875-2.18 19.56-18.508 39.128-37.008 58.664-55.541 4.433-4.206 3.587-10.424-1.727-13.48z" fill="#fe9738" data-original="#fe9738" style=""/></g></g><path d="m290.429 197.398c1.808-4.667 1.188-9.911-1.657-14.028-5.776-8.358-16.868-8.85-24.343-1.739-19.65 18.694-39.094 37.005-58.653 55.537-3.775 3.577-5.638 8.435-5.109 13.327.523 4.846 3.338 9.143 7.724 11.792 9.344 5.643 18.762 10.954 28.098 16.29-5.28 12.593-10.132 23.632-14.919 36.002-2.888 7.462.419 15.744 7.692 19.264 5.71 2.763 12.302 2.227 18.299-3.481 19.418-18.485 39.243-37.119 58.671-55.548 3.818-3.622 5.673-8.512 5.089-13.416-.591-4.96-3.594-9.337-8.238-12.008-9.198-5.29-18.373-10.623-27.558-15.937 5.004-11.756 10.2-23.91 14.904-36.055zm-30.889 35.324c-1.794 4.239-.292 8.651 3.74 10.979 10.78 6.223 21.534 12.489 32.325 18.693 1.106.636 1.137.746.303 1.537-15.796 14.985-58.596 55.965-59.934 56.487-.146-.056-.507-.189-.415-.426 5.319-13.747 10.945-26.597 16.921-40.738 1.488-3.521.899-8.275-3.771-10.964-10.838-6.239-21.799-12.342-32.565-18.844-.801-.484-.767-.71-.051-1.388 20.872-19.776 57.958-55.301 59.803-56.46.397.085.544.299.546.384-5.31 13.69-11.213 27.299-16.902 40.74zm252.327-54.246c-.782-4.067-4.716-6.729-8.781-5.948l-49.698 9.56c-23.133 4.442-47.564-.609-67.036-13.855l-29.387-19.995c-3.426-2.33-8.09-1.442-10.42 1.981-2.33 3.425-1.443 8.09 1.981 10.42l29.388 19.996c22.756 15.484 51.355 21.361 78.305 16.184l49.7-9.561c4.068-.783 6.731-4.715 5.948-8.782zm-360.259-51.234 111.413-26.994c1.911 2.917 4.434 5.417 7.468 7.295l56.412 38.382c3.389 2.31 8.069 1.472 10.419-1.982 2.33-3.424 1.443-8.089-1.982-10.419l-56.559-38.482c-2.128-1.406-3.676-3.03-4.383-5.565-.443-1.591-.598-4.339 1.249-7.176.047-.073.103-.141.22-.286 3.877-4.782 9.392-4.516 15.004-2.639l78.588 23.54c3.969 1.19 8.148-1.063 9.337-5.031s-1.063-8.148-5.031-9.337l-78.161-23.412c-11.245-4.784-24.125-1.72-31.424 7.476-3 3.779-4.806 8.425-5.079 13.151l-111.077 26.913c-6.532 1.655-13.022-3.352-13.022-10.144 0-3.97 2.205-7.552 5.749-9.344l150.183-75.771c5.835-2.948 12.648-3.208 18.695-.719l126.834 52.168c3.657 1.508 7.498 2.708 11.404 3.54 6.235 1.327 13.18 2.25 19.449 1.299l38.45-6.58c4.083-.699 6.826-4.575 6.127-8.658s-4.579-6.825-8.658-6.127l-38.048 6.511c-4.61.265-9.234-.082-13.747-1.029-3.226-.677-6.236-1.569-9.267-2.826l-126.832-52.168c-10.08-4.152-21.439-3.714-31.165 1.199l-150.186 75.773c-8.627 4.362-13.986 13.073-13.986 22.732 0 16.266 15.689 28.781 31.606 24.71zm41.184 214.055c-2.229 3.491-1.204 8.129 2.288 10.356 18.188 11.605 39.254 17.74 60.922 17.74 62.524 0 113.392-50.867 113.392-113.392s-50.867-113.392-113.392-113.392-113.392 50.867-113.392 113.392c0 27.513 9.977 54.047 28.093 74.713 2.731 3.114 7.47 3.427 10.584.696 3.115-2.73 3.426-7.469.696-10.583-15.717-17.931-24.373-40.953-24.373-64.826 0-54.253 44.138-98.392 98.392-98.392s98.392 44.138 98.392 98.392c0 54.253-44.138 98.392-98.392 98.392-18.804 0-37.081-5.32-52.853-15.385-3.494-2.229-8.129-1.203-10.357 2.289zm167.604 43.466-111.413 26.995c-1.911-2.917-4.434-5.418-7.468-7.296l-107.423-73.09c-22.746-15.475-51.286-21.375-78.305-16.185l-49.7 9.561c-4.068.783-6.731 4.715-5.949 8.782.783 4.066 4.711 6.727 8.782 5.948l49.698-9.561c23.13-4.443 47.563.607 67.037 13.856.194.132 107.692 73.275 107.896 73.399 3.98 2.42 6.216 7.674 2.947 12.325-3.597 5.117-9.859 5.008-15.363 3.129l-46.451-13.909c-10.719-3.21-21.428-6.42-32.137-9.63-3.967-1.191-8.148 1.062-9.338 5.029-1.189 3.968 1.063 8.148 5.03 9.338 10.711 3.212 21.421 6.422 32.144 9.633l46.018 13.779c10.923 4.673 23.854 1.835 31.428-7.479 3.052-3.753 4.804-8.397 5.075-13.146l111.079-26.913c6.459-1.657 13.021 3.299 13.021 10.144 0 3.971-2.205 7.552-5.749 9.344l-150.183 75.772c-5.833 2.947-12.648 3.211-18.696.718l-126.835-52.167c-3.668-1.512-7.54-2.487-11.404-3.541-5.911-1.612-13.314-2.221-19.449-1.298l-38.45 6.579c-4.083.698-6.826 4.574-6.127 8.657.698 4.083 4.572 6.826 8.658 6.128l38.048-6.511c4.807-.274 9.541.104 14.255 1.128 3.004.652 5.949 1.569 8.758 2.728l126.837 52.168c10.065 4.146 21.428 3.72 31.165-1.198l150.186-75.773c8.627-4.363 13.986-13.073 13.986-22.733-.002-16.549-15.799-28.742-31.608-24.71z" fill="#000000" data-original="#000000" style=""/></g></g></svg>
