<?xml version="1.0"?>
<svg xmlns="http://www.w3.org/2000/svg" xmlns:xlink="http://www.w3.org/1999/xlink" xmlns:svgjs="http://svgjs.com/svgjs" version="1.1" width="512" height="512" x="0" y="0" viewBox="0 0 256 256" style="enable-background:new 0 0 512 512" xml:space="preserve" class=""><g><g xmlns="http://www.w3.org/2000/svg"><path d="m169.77 21.197v195.677h-143.72v-195.677c0-5.53 4.47-10 10-10h123.72c5.52 0 10 4.47 10 10z" fill="#7d61c9" data-original="#71c1e8" style="" class=""/><path d="m26.05 209.873h143.72v7h-143.72z" fill="#b7b7b7" data-original="#4ba5c8" style="" class=""/><path d="m46.047 111.487v-75.293c0-2.761 2.239-5 5-5h93.722c2.761 0 5 2.239 5 5v75.293c0 2.761-2.239 5-5 5h-93.722c-2.761 0-5-2.239-5-5z" fill="#f0c020" data-original="#f0c020" style="" class=""/><path d="m90.339 95.97 4.883-16.887c.195-.675-.311-1.349-1.014-1.349h-10.418c-.704 0-1.211-.676-1.014-1.352l7.778-26.622c.132-.45.544-.76 1.014-.76h12.442c.702 0 1.209.673 1.015 1.348l-4.821 16.745c-.194.675.312 1.348 1.015 1.348h10.806c.848 0 1.35.948.874 1.649l-18.784 27.653c-1.35 1.989-4.443.536-3.776-1.773z" fill="#efefef" data-original="#efefef" style="" class=""/><path d="m186.57 226.873v12.93c0 2.761-2.239 5-5 5h-167.33c-2.761 0-5-2.239-5-5v-12.93c0-5.53 4.48-10 10-10h157.33c5.523 0 10 4.477 10 10z" fill="#aeaeae" data-original="#aeaeae" style="" class=""/><path d="m186.27 154.597v30.55c0 3.31-2.68 6-6 6h-10.5v-42.55h10.5c3.32 0 6 2.69 6 6z" fill="#aeaeae" data-original="#aeaeae" style="" class=""/><path d="m169.77 148.597h7v42.55h-7z" fill="#868686" data-original="#868686" style="" class=""/><path d="m224.88 111.34v43.54c0 11.58-9.42 21-21 21h-17.61v-12h17.61c4.96 0 9-4.04 9-9v-43.54z" fill="#efefef" data-original="#efefef" style="" class=""/><path d="m186.27 163.88h7v12h-7z" fill="#aeaeae" data-original="#aeaeae" style="" class=""/><path d="m212.88 111.34h12v7h-12z" fill="#aeaeae" data-original="#aeaeae" style="" class=""/><path d="m94.958 167.77h-43.911c-2.761 0-5-2.239-5-5v-21.834c0-2.761 2.239-5 5-5h43.911c2.761 0 5 2.239 5 5v21.834c0 2.762-2.239 5-5 5z" fill="#efefef" data-original="#efefef" style="" class=""/><path d="m234.547 111.34h-31.333c-5.523 0-10-4.477-10-10v-33.18h51.333v33.18c0 5.523-4.477 10-10 10z" fill="#7d61c9" data-original="#71c1e8" style="" class=""/><path d="m159.77 206.56c-1.381 0-2.5-1.119-2.5-2.5v-180.364h-108.22c-1.381 0-2.5-1.119-2.5-2.5s1.119-2.5 2.5-2.5h110.72c1.381 0 2.5 1.119 2.5 2.5v182.864c0 1.38-1.12 2.5-2.5 2.5zm-120.72-182.864h-3c-1.381 0-2.5-1.119-2.5-2.5s1.119-2.5 2.5-2.5h3c1.381 0 2.5 1.119 2.5 2.5s-1.119 2.5-2.5 2.5z" fill="#c4e4fd" data-original="#c4e4fd" style="" class=""/><path d="m139.769 108.986h-70.722c-1.381 0-2.5-1.119-2.5-2.5s1.119-2.5 2.5-2.5h68.222v-62.793c0-1.381 1.119-2.5 2.5-2.5s2.5 1.119 2.5 2.5v65.293c0 1.381-1.12 2.5-2.5 2.5zm-80.722 0h-3c-1.381 0-2.5-1.119-2.5-2.5s1.119-2.5 2.5-2.5h3c1.381 0 2.5 1.119 2.5 2.5s-1.119 2.5-2.5 2.5z" fill="#f8e5b0" data-original="#f8e5b0" style="" class=""/><path d="m176.57 237.303h-144.33c-1.381 0-2.5-1.119-2.5-2.5s1.119-2.5 2.5-2.5h141.83v-5.43c0-1.381 1.119-2.5 2.5-2.5s2.5 1.119 2.5 2.5v7.93c0 1.381-1.119 2.5-2.5 2.5zm-154.33 0h-3c-1.381 0-2.5-1.119-2.5-2.5s1.119-2.5 2.5-2.5h3c1.381 0 2.5 1.119 2.5 2.5s-1.119 2.5-2.5 2.5z" fill="#eeeeee" data-original="#eeeeee" style="" class=""/><path d="m104.009 46.5h-12.441c-1.57 0-2.974 1.053-3.414 2.559l-7.778 26.623c-.664 2.274 1.049 4.552 3.414 4.552h8.498l-4.35 15.042c-.644 2.227.371 4.47 2.469 5.455 2.1.986 4.474.334 5.776-1.583l18.784-27.653c1.601-2.358-.091-5.554-2.942-5.554h-8.888l4.29-14.901c.655-2.274-1.049-4.54-3.418-4.54zm5.289 24.44-15.879 23.378 4.205-14.54c.647-2.235-1.011-4.545-3.416-4.545h-8.492l6.934-23.733h9.441l-4.29 14.901c-.655 2.273 1.049 4.539 3.417 4.539z" fill="#000000" data-original="#000000" style="" class=""/><circle cx="46.05" cy="71.49" r="2.5" fill="#000000" data-original="#000000" style="" class=""/><path d="m144.77 28.689h-93.72c-4.14 0-7.5 3.37-7.5 7.511v25.29c0 1.38 1.12 2.5 2.5 2.5s2.5-1.12 2.5-2.5v-25.29c0-1.381 1.12-2.5 2.5-2.511h93.72c1.38.011 2.5 1.13 2.5 2.511v75.29c0 1.369-1.12 2.489-2.5 2.5h-93.72c-1.38-.011-2.5-1.131-2.5-2.5v-30c0-1.381-1.12-2.5-2.5-2.5s-2.5 1.119-2.5 2.5v30c0 4.13 3.36 7.489 7.5 7.5h93.72c4.13-.011 7.5-3.37 7.5-7.5v-75.29c0-4.14-3.37-7.511-7.5-7.511z" fill="#000000" data-original="#000000" style="" class=""/><path d="m162.36 242.31c-1.38 0-2.5 1.12-2.5 2.49 0 1.38 1.12 2.5 2.5 2.5s2.5-1.12 2.5-2.5c0-1.37-1.12-2.49-2.5-2.49z" fill="#000000" data-original="#000000" style="" class=""/><circle cx="212.88" cy="141.77" r="2.5" fill="#000000" data-original="#000000" style="" class=""/><path d="m118.527 137.342h-2.834c-1.381 0-2.5 1.119-2.5 2.5s1.119 2.5 2.5 2.5h2.834c1.381 0 2.5-1.119 2.5-2.5s-1.119-2.5-2.5-2.5z" fill="#000000" data-original="#000000" style="" class=""/><path d="m133.476 137.342h-2.834c-1.381 0-2.5 1.119-2.5 2.5s1.119 2.5 2.5 2.5h2.834c1.381 0 2.5-1.119 2.5-2.5s-1.12-2.5-2.5-2.5z" fill="#000000" data-original="#000000" style="" class=""/><path d="m148.425 137.342h-2.834c-1.381 0-2.5 1.119-2.5 2.5s1.119 2.5 2.5 2.5h2.834c1.381 0 2.5-1.119 2.5-2.5s-1.119-2.5-2.5-2.5z" fill="#000000" data-original="#000000" style="" class=""/><path d="m118.527 149.354h-2.834c-1.381 0-2.5 1.119-2.5 2.5s1.119 2.5 2.5 2.5h2.834c1.381 0 2.5-1.119 2.5-2.5s-1.119-2.5-2.5-2.5z" fill="#000000" data-original="#000000" style="" class=""/><path d="m133.476 149.354h-2.834c-1.381 0-2.5 1.119-2.5 2.5s1.119 2.5 2.5 2.5h2.834c1.381 0 2.5-1.119 2.5-2.5s-1.12-2.5-2.5-2.5z" fill="#000000" data-original="#000000" style="" class=""/><path d="m148.425 149.354h-2.834c-1.381 0-2.5 1.119-2.5 2.5s1.119 2.5 2.5 2.5h2.834c1.381 0 2.5-1.119 2.5-2.5s-1.119-2.5-2.5-2.5z" fill="#000000" data-original="#000000" style="" class=""/><path d="m118.527 161.365h-2.834c-1.381 0-2.5 1.119-2.5 2.5s1.119 2.5 2.5 2.5h2.834c1.381 0 2.5-1.119 2.5-2.5s-1.119-2.5-2.5-2.5z" fill="#000000" data-original="#000000" style="" class=""/><path d="m133.476 161.365h-2.834c-1.381 0-2.5 1.119-2.5 2.5s1.119 2.5 2.5 2.5h2.834c1.381 0 2.5-1.119 2.5-2.5s-1.12-2.5-2.5-2.5z" fill="#000000" data-original="#000000" style="" class=""/><path d="m148.425 161.365h-2.834c-1.381 0-2.5 1.119-2.5 2.5s1.119 2.5 2.5 2.5h2.834c1.381 0 2.5-1.119 2.5-2.5s-1.119-2.5-2.5-2.5z" fill="#000000" data-original="#000000" style="" class=""/><path d="m94.958 133.437h-43.911c-4.136 0-7.5 3.364-7.5 7.5v21.834c0 4.136 3.364 7.5 7.5 7.5h43.911c4.136 0 7.5-3.364 7.5-7.5v-21.834c0-4.136-3.364-7.5-7.5-7.5zm2.5 29.334c0 1.379-1.122 2.5-2.5 2.5h-43.911c-1.378 0-2.5-1.121-2.5-2.5v-21.834c0-1.379 1.122-2.5 2.5-2.5h43.911c1.378 0 2.5 1.121 2.5 2.5z" fill="#000000" data-original="#000000" style="" class=""/><path d="m84.565 144.479h-23.125c-1.381 0-2.5 1.119-2.5 2.5s1.119 2.5 2.5 2.5h23.125c1.381 0 2.5-1.119 2.5-2.5s-1.119-2.5-2.5-2.5z" fill="#000000" data-original="#000000" style="" class=""/><path d="m84.565 154.229h-23.125c-1.381 0-2.5 1.119-2.5 2.5s1.119 2.5 2.5 2.5h23.125c1.381 0 2.5-1.119 2.5-2.5s-1.119-2.5-2.5-2.5z" fill="#000000" data-original="#000000" style="" class=""/><path d="m244.55 65.66h-4.36v-18.78c0-4.16-3.4-7.55-7.56-7.55s-7.55 3.39-7.56 7.55v18.78h-12.38v-18.78c0-4.16-3.39-7.55-7.56-7.55s-7.56 3.39-7.56 7.55v18.78h-4.36c-1.393 0-2.5 1.148-2.5 2.5v33.18c.01 6.89 5.61 12.5 12.5 12.5h7.17v17.93c0 1.38 1.12 2.5 2.5 2.5s2.5-1.12 2.5-2.5v-17.93h7v41.04c-.02 10.18-8.32 18.479-18.5 18.5h-15.11v-7h15.11c6.34-.01 11.49-5.16 11.5-11.5v-3.11c0-1.38-1.12-2.5-2.5-2.5s-2.5 1.12-2.5 2.5v3.11c-.01 3.58-2.92 6.49-6.5 6.5h-15.11v-6.783c0-4.687-3.813-8.5-8.5-8.5h-8v-124.9c0-6.893-5.607-12.5-12.5-12.5h-123.72c-6.893 0-12.5 5.607-12.5 12.5v193.173h-4.31c-6.89 0-12.5 5.609-12.5 12.5v12.93c0 4.14 3.37 7.5 7.5 7.5h138.12c1.38 0 2.5-1.12 2.5-2.5 0-1.37-1.12-2.49-2.5-2.49h-138.12c-1.38-.01-2.5-1.13-2.5-2.51v-12.93c.01-4.12 3.37-7.49 7.5-7.5h157.33c4.13.01 7.49 3.38 7.5 7.5v12.93c0 1.38-1.12 2.5-2.5 2.51h-9.21c-1.38 0-2.5 1.12-2.5 2.49 0 1.38 1.12 2.51 2.5 2.51l9.21-.01c4.14 0 7.5-3.36 7.5-7.5v-12.93c0-6.891-5.61-12.5-12.5-12.5h-4.3v-20.724h8c4.687 0 8.5-3.813 8.5-8.5v-6.767h15.11c12.95-.01 23.49-10.55 23.5-23.5v-41.04h7.17c6.89 0 12.5-5.61 12.5-12.5v-3.739c0-1.38-1.12-2.5-2.5-2.5s-2.5 1.12-2.5 2.5v3.74c-.01 4.13-3.38 7.49-7.5 7.5-11.029 0-20.409 0-31.34 0-4.12-.01-7.49-3.37-7.5-7.5v-30.68h46.34v6.94c0 1.38 1.12 2.5 2.5 2.5s2.5-1.12 2.5-2.5v-9.44c0-1.352-1.108-2.5-2.5-2.5zm-77.28 148.71h-138.72v-193.174c0-4.136 3.364-7.5 7.5-7.5h123.72c4.136 0 7.5 3.364 7.5 7.5zm16.5-29.224c0 1.93-1.57 3.5-3.5 3.5h-8v-37.55h8c1.93 0 3.5 1.57 3.5 3.5zm23.92-119.486h-5.12v-18.78c0-1.4 1.15-2.55 2.56-2.55s2.56 1.149 2.56 2.55zm27.5 0h-5.12v-18.78c.01-1.4 1.15-2.55 2.56-2.55s2.55 1.149 2.56 2.55z" fill="#000000" data-original="#000000" style="" class=""/><circle cx="244.55" cy="87.6" r="2.5" fill="#000000" data-original="#000000" style="" class=""/><path d="m211.01 89.75c0 4.34 3.53 7.87 7.87 7.87s7.87-3.53 7.87-7.87-3.53-7.87-7.87-7.87-7.87 3.53-7.87 7.87zm10.74 0c0 1.58-1.29 2.87-2.87 2.87s-2.87-1.29-2.87-2.87 1.29-2.87 2.87-2.87 2.87 1.29 2.87 2.87z" fill="#000000" data-original="#000000" style="" class=""/></g></g></svg>
