<?xml version="1.0"?>
<svg xmlns="http://www.w3.org/2000/svg" xmlns:xlink="http://www.w3.org/1999/xlink" xmlns:svgjs="http://svgjs.com/svgjs" version="1.1" width="512" height="512" x="0" y="0" viewBox="0 0 462.714 462.714" style="enable-background:new 0 0 512 512" xml:space="preserve" class=""><g>
<g xmlns="http://www.w3.org/2000/svg">
	<path style="" d="M215.073,370.606h-204.8l130.09-133.747C186.253,265.966,214.351,316.268,215.073,370.606z" fill="#ff8300" data-original="#00efd1" class=""/>
	<path style="" d="M452.265,358.067H225.522c-4.307-49.211-29.393-94.25-68.963-123.82l129.045-133.224   c3.895-3.435,4.268-9.378,0.833-13.273c-0.26-0.295-0.538-0.573-0.833-0.833c-3.706-4.04-9.986-4.31-14.025-0.603   c-0.21,0.192-0.411,0.394-0.603,0.603L2.959,363.291c-2.941,2.632-3.792,6.889-2.09,10.449c1.731,3.54,5.484,5.625,9.404,5.224   h441.992c5.771,0,10.449-4.678,10.449-10.449C462.714,362.745,458.036,358.067,452.265,358.067z M141.93,247.83   c35.544,26.228,58.322,66.28,62.694,110.237H34.828L141.93,247.83z" fill="#083863" data-original="#083863" class=""/>
</g>
<g xmlns="http://www.w3.org/2000/svg">
</g>
<g xmlns="http://www.w3.org/2000/svg">
</g>
<g xmlns="http://www.w3.org/2000/svg">
</g>
<g xmlns="http://www.w3.org/2000/svg">
</g>
<g xmlns="http://www.w3.org/2000/svg">
</g>
<g xmlns="http://www.w3.org/2000/svg">
</g>
<g xmlns="http://www.w3.org/2000/svg">
</g>
<g xmlns="http://www.w3.org/2000/svg">
</g>
<g xmlns="http://www.w3.org/2000/svg">
</g>
<g xmlns="http://www.w3.org/2000/svg">
</g>
<g xmlns="http://www.w3.org/2000/svg">
</g>
<g xmlns="http://www.w3.org/2000/svg">
</g>
<g xmlns="http://www.w3.org/2000/svg">
</g>
<g xmlns="http://www.w3.org/2000/svg">
</g>
<g xmlns="http://www.w3.org/2000/svg">
</g>
</g></svg>
